# xmcd
#
# Track frame offsets: 
#        150
#        12212
#        25720
#        39034
#        51770
#        63090
#        73728
#        84911
#        96532
#        108949
#        121411
#        133926
#        148288
#        162229
#        175096
#        188749
#        202151
#        214256
#        227619
#        240935
#        253377
#        265363
#        278313
#        289964
#        303923
#        316285
#        329511
#        340999
#
# Disc length: 4705 seconds
#
# Revision: 1
# Processed by: cddbd v1.5.2PL0 Copyright (c) Steve Scherf et al.
# Submitted via: ExactAudioCopyFreeDBPlugin 1.0
#
DISCID=9a125f1c
DTITLE=The Carter Family - In The Shadow Of Clinch Mountain - Vol. 10
DYEAR=2000
DGENRE=Bluegrass
TTITLE0=Bring Back My Boy
TTITLE1=It Is Better Farther On
TTITLE2=Charlie And Nellie
TTITLE3=Cuban Soldier
TTITLE4=Heart That Was Broken For Me
TTITLE5=You're Nothing More To Me
TTITLE6=Stern Old Bachelor
TTITLE7=Little Joe
TTITLE8=Reckless Motorman
TTITLE9=You Denied Your Love
TTITLE10=Oh Take Me Back
TTITLE11=You Are My Flower
TTITLE12=Who's That Knocking At My Window
TTITLE13=They Call Her Mother
TTITLE14=Coal Miner's Blues
TTITLE15=Young Freda Bolt
TTITLE16=Little Poplar Log House On The Hill
TTITLE17=The Dying Mother
TTITLE18=Buddies In The Saddle
TTITLE19=Heaven's Radio
TTITLE20=Beautiful Home
TTITLE21=There'll Be No Distinction There
TTITLE22=Give Him One More As He Goes
TTITLE23=Lonesome For You Darling
TTITLE24=Blackie's Gunman
TTITLE25=You've Got To Righten That Wrong
TTITLE26=Meeting In The Air
TTITLE27=My Home Among The Hills
EXTD=Bear Family CD 15865 LK
EXTT0=08-JUN-1938, Charlotte
EXTT1=08-JUN-1938, Charlotte
EXTT2=08-JUN-1938, Charlotte
EXTT3=08-JUN-1938, Charlotte
EXTT4=08-JUN-1938, Charlotte
EXTT5=08-JUN-1938, Charlotte
EXTT6=08-JUN-1938, Charlotte
EXTT7=08-JUN-1938, Charlotte
EXTT8=08-JUN-1938, Charlotte
EXTT9=08-JUN-1938, Charlotte
EXTT10=08-JUN-1938, Charlotte
EXTT11=08-JUN-1938, Charlotte
EXTT12=08-JUN-1938, Charlotte
EXTT13=08-JUN-1938, Charlotte
EXTT14=08-JUN-1938, Charlotte
EXTT15=08-JUN-1938, Charlotte
EXTT16=03-OCT-1940, Chicago
EXTT17=03-OCT-1940, Chicago
EXTT18=03-OCT-1940, Chicago
EXTT19=03-OCT-1940, Chicago
EXTT20=03-OCT-1940, Chicago
EXTT21=03-OCT-1940, Chicago
EXTT22=03-OCT-1940, Chicago
EXTT23=03-OCT-1940, Chicago
EXTT24=03-OCT-1940, Chicago
EXTT25=04-OCT-1940, Chicago
EXTT26=04-OCT-1940, Chicago
EXTT27=04-OCT-1940, Chicago
PLAYORDER=
